<svg id="logo-61" width="80" height="80" viewBox="0 0 50 50" fill="none" xmlns="http://www.w3.org/2000/svg"><path class="stroke" d="M25 33.03C29.6944 33.03 33.5 29.4348 33.5 25C33.5 20.5651 29.6944 16.97 25 16.97C20.3056 16.97 16.5 20.5651 16.5 25C16.5 29.4348 20.3056 33.03 25 33.03Z" stroke="black" stroke-width="0.5" stroke-miterlimit="10"></path><path class="stroke" d="M25 33.48C30.4787 33.48 34.92 29.6834 34.92 25C34.92 20.3166 30.4787 16.52 25 16.52C19.5214 16.52 15.08 20.3166 15.08 25C15.08 29.6834 19.5214 33.48 25 33.48Z" stroke="black" stroke-width="0.5" stroke-miterlimit="10"></path><path class="stroke" d="M25 33.9301C31.2629 33.9301 36.34 29.932 36.34 25.0001C36.34 20.0682 31.2629 16.0701 25 16.0701C18.7371 16.0701 13.66 20.0682 13.66 25.0001C13.66 29.932 18.7371 33.9301 25 33.9301Z" stroke="black" stroke-width="0.5" stroke-miterlimit="10"></path><path class="stroke" d="M25 34.3801C32.0471 34.3801 37.76 30.1805 37.76 25.0001C37.76 19.8197 32.0471 15.6201 25 15.6201C17.9528 15.6201 12.24 19.8197 12.24 25.0001C12.24 30.1805 17.9528 34.3801 25 34.3801Z" stroke="black" stroke-width="0.5" stroke-miterlimit="10"></path><path class="stroke" d="M25 34.8299C32.8259 34.8299 39.17 30.4289 39.17 24.9999C39.17 19.571 32.8259 15.1699 25 15.1699C17.1741 15.1699 10.83 19.571 10.83 24.9999C10.83 30.4289 17.1741 34.8299 25 34.8299Z" stroke="black" stroke-width="0.5" stroke-miterlimit="10"></path><path class="stroke" d="M25 35.28C33.6101 35.28 40.59 30.6775 40.59 25C40.59 19.3225 33.6101 14.72 25 14.72C16.3899 14.72 9.40997 19.3225 9.40997 25C9.40997 30.6775 16.3899 35.28 25 35.28Z" stroke="black" stroke-width="0.5" stroke-miterlimit="10"></path><path class="stroke" d="M25 35.72C34.3944 35.72 42.01 30.9205 42.01 25C42.01 19.0795 34.3944 14.28 25 14.28C15.6056 14.28 7.98999 19.0795 7.98999 25C7.98999 30.9205 15.6056 35.72 25 35.72Z" stroke="black" stroke-width="0.5" stroke-miterlimit="10"></path><path class="stroke" d="M25 36.1701C35.1786 36.1701 43.43 31.1691 43.43 25.0001C43.43 18.8311 35.1786 13.8301 25 13.8301C14.8214 13.8301 6.57001 18.8311 6.57001 25.0001C6.57001 31.1691 14.8214 36.1701 25 36.1701Z" stroke="black" stroke-width="0.5" stroke-miterlimit="10"></path><path class="stroke" d="M25 36.6199C35.9629 36.6199 44.85 31.4174 44.85 24.9999C44.85 18.5823 35.9629 13.3799 25 13.3799C14.0372 13.3799 5.15002 18.5823 5.15002 24.9999C5.15002 31.4174 14.0372 36.6199 25 36.6199Z" stroke="black" stroke-width="0.5" stroke-miterlimit="10"></path><path class="stroke" d="M25 37.0699C36.7471 37.0699 46.27 31.666 46.27 24.9999C46.27 18.3339 36.7471 12.9299 25 12.9299C13.2529 12.9299 3.72998 18.3339 3.72998 24.9999C3.72998 31.666 13.2529 37.0699 25 37.0699Z" stroke="black" stroke-width="0.5" stroke-miterlimit="10"></path><path class="stroke" d="M25 37.52C37.5313 37.52 47.69 31.9146 47.69 25C47.69 18.0854 37.5313 12.48 25 12.48C12.4687 12.48 2.31 18.0854 2.31 25C2.31 31.9146 12.4687 37.52 25 37.52Z" stroke="black" stroke-width="0.5" stroke-miterlimit="10"></path><path class="stroke" d="M25 37.97C38.3101 37.97 49.1 32.1632 49.1 25C49.1 17.8369 38.3101 12.03 25 12.03C11.69 12.03 0.900024 17.8369 0.900024 25C0.900024 32.1632 11.69 37.97 25 37.97Z" stroke="black" stroke-width="0.5" stroke-miterlimit="10"></path></svg>