<?xml version="1.0" encoding="UTF-8"?>
<svg width="317px" height="82px" viewBox="0 0 317 82" version="1.1" xmlns="http://www.w3.org/2000/svg" xmlns:xlink="http://www.w3.org/1999/xlink">
    <title>Calque_1</title>
    <g id="Brand/Web" stroke="none" stroke-width="1" fill="none" fill-rule="evenodd">
        <g id="Artboard" transform="translate(-1.000000, -25.000000)" fill="#10172A">
            <g id="Calque_1" transform="translate(1.247671, 25.000050)">
                <path d="M301.855493,21.2690157 C301.248673,25.018662 303.051436,28.4118012 305.825112,29.8656425 C303.885814,40.2169925 296.095754,56.7730843 291.711474,56.7730843 C287.327194,56.7730843 290.700106,41.412935 295.478819,23.145103 C296.490187,19.2336378 286.204576,20.1109995 284.176783,23.5799912 C280.697678,42.1284777 273.018867,56.3306109 268.24774,56.3306109 C266.361539,56.3306109 266.073299,54.0120501 266.073299,51.9817291 C266.073299,43.7239105 270.5663,27.2032166 271.145308,23.7241111 C271.729373,20.3082162 266.981001,21.0566284 263.871045,22.5762086 C262.90266,23.0945346 255.65621,26.71776 252.131593,28.3915738 C249.982436,20.4422224 241.057115,21.4788745 239.264465,27.4990417 C237.962329,31.8403382 241.20882,34.6367703 244.503351,35.2208353 C244.331418,44.8490573 238.655116,57.0613242 232.162134,57.0613242 C224.048436,57.0613242 227.815781,31.122267 238.250569,24.7455927 C237.669032,21.4131356 233.322679,20.9782474 229.264565,22.722857 C221.489675,26.042672 216.657865,38.5532924 217.348124,48.9450971 C214.31402,53.6631282 211.279917,56.6314928 209.411414,56.6314928 C208.541638,56.6314928 207.527742,55.7642449 207.527742,53.5973892 C207.527742,47.5114832 210.561845,30.555901 212.308983,19.2538652 C213.469528,11.1376381 212.020743,1.28438679 201.006948,1.28438679 C193.287682,1.28438679 188.981784,8.65978689 185.854129,20.1236416 L181.153796,20.1236416 C179.131061,20.1236416 177.965459,25.3422997 180.142429,25.4864196 C180.845329,25.5496301 182.531785,25.5572154 184.521651,25.5471017 C183.950229,28.0932203 183.414204,30.7885156 182.895878,33.6026467 C182.624494,35.0455315 182.363224,36.5347707 182.112068,38.0703642 C178.167733,46.3205975 168.944058,57.6580312 160.724166,57.6580312 C156.913837,57.6580312 155.586417,53.0487222 155.819032,47.3446075 C178.165204,48.3382764 185.029864,20.2728183 165.070519,20.4144098 C153.186947,20.4927908 145.834302,33.0312239 144.951884,44.6442553 C141.391869,50.5582288 135.467782,57.7920374 130.001339,57.7920374 C118.408535,57.7920374 126.233993,26.0553141 134.04681,26.0553141 C137.379267,26.0553141 136.656139,31.4180921 134.625818,35.0413175 C135.351475,39.6784391 142.742045,40.1133273 144.486655,32.2878685 C145.788791,26.3460823 142.168094,20.5484161 134.486755,20.5484161 C121.715707,20.5484161 113.690504,34.7884755 113.617179,46.9678729 C111.167141,52.3104236 107.981332,55.1827084 105.650129,55.1827084 C103.766456,55.1827084 103.475688,53.0107959 105.794249,40.2650325 C106.373257,37.0766953 106.952265,33.4534699 107.533802,29.6861247 C108.393464,24.2348519 106.128,21.0591568 101.445367,20.9934179 C101.445367,20.9934179 100.904285,20.9934179 100.714654,21.0136453 C97.4454073,21.1956915 93.0762981,22.596436 88.454347,25.8176426 C85.6730854,19.3044336 77.7641888,20.596456 76.0878465,26.3460823 C74.7857104,30.8972377 78.0322013,33.7518234 81.3267321,34.3510589 C81.139629,44.2801629 75.4683837,56.9222611 68.9855158,56.9222611 C60.8718171,56.9222611 64.6391624,30.1210128 75.0714219,23.5926333 C74.4924138,20.1135279 70.1460604,19.6786397 66.0879469,21.4181924 C52.032462,27.3599786 47.6835803,64.0220634 67.3926114,64.0220634 C83.0207732,64.0220634 89.1092077,41.8554084 89.4100897,32.0603107 C91.9385093,30.1791665 94.7475835,28.700041 96.3177321,28.6621147 L96.3758858,28.6621147 C97.0990138,28.6621147 97.3872536,28.952883 97.2431337,29.8201309 C96.3708289,36.4850451 94.0623818,47.7870809 94.0623818,53.872987 C94.0623818,60.1055414 95.8019345,64.0170066 101.164713,64.0170066 C106.201325,64.0170066 111.169669,59.5518175 114.565337,53.903328 C116.33523,59.7540911 120.681584,64.0170066 128.120194,64.0170066 C135.490538,64.0170066 141.366585,58.1131467 145.404471,52.3862762 C146.807744,59.0107357 150.966994,64.0170066 158.408133,64.0170066 C168.711443,64.0170066 176.26889,55.7870007 180.627885,48.1183039 C180.359873,50.1410396 180.101974,52.2168721 179.854189,54.3078752 C178.405404,66.0473276 177.247388,70.8285691 175.361187,75.0409162 C174.587297,76.7787697 173.717009,78.4720732 172.754386,80.1129261 C172.02873,81.4175906 172.898506,81.9965987 174.059051,81.9965987 C176.665852,81.9965987 180.868085,80.4036943 183.477414,76.0548125 C185.940095,72.0093411 188.405304,67.9411139 191.012105,44.6088574 C191.588584,39.6000581 192.369866,32.3738347 193.495013,25.4813628 L196.374883,25.4813628 C198.984212,25.4813628 201.446893,20.5534729 198.397618,20.2652331 C197.861593,20.2146647 196.387525,20.1843236 194.448227,20.1615679 C196.094228,11.9593745 198.336936,5.33744348 201.441836,5.33744348 C204.339405,5.33744348 204.918413,9.83044519 203.616277,17.0768959 C201.441836,28.3789317 199.414043,42.5810648 198.544267,50.7048772 C197.532899,60.2673603 200.716179,64.0347055 206.078957,64.0347055 C210.303947,64.0347055 214.981523,60.1662235 218.559237,55.1852368 C220.37717,60.3659686 224.215311,64.0347055 230.56923,64.0347055 C244.910426,64.0347055 251.218833,45.9337493 252.39202,35.6203256 C254.48188,34.9260956 256.526301,34.1019093 258.513324,33.152588 C257.135335,40.3029587 256.073399,48.1789859 256.073399,52.7326697 C256.073399,59.3975839 259.405856,63.8905856 264.477866,63.8905856 C271.949346,63.8905856 277.071924,56.8514653 280.154068,50.9956454 C280.13384,58.7098538 283.092091,64.037234 290.123626,64.037234 C305.339656,64.037234 316.062683,33.1728154 316.062683,23.3170356 C316.057627,12.5763089 303.162686,13.0086687 301.855493,21.2690157 Z M165.348645,25.9061373 C171.439608,25.9061373 166.949135,41.648078 156.296903,42.6695595 C157.647079,34.4496673 161.439708,25.9061373 165.348645,25.9061373 L165.348645,25.9061373 Z" id="Shape" fill-rule="nonzero"></path>
                <path d="M104.193759,16.0528859 C112.744875,16.0528859 114.628547,1.27174469 105.645072,1.27174469 C97.2380769,1.27174469 95.5010526,16.0528859 104.193759,16.0528859 Z" id="Path"></path>
                <path d="M38.6899916,2.28564097 C41.4434406,3.87854535 45.4990257,9.52956325 43.9061213,21.7039038 C41.2967922,41.1221667 30.8645328,57.0613242 27.3854273,57.0613242 C25.3626916,57.0613242 25.5017547,54.0272206 28.1110838,42.7150711 C31.5876608,27.9339298 36.3714308,6.9227626 17.532176,6.9227626 C-2.46509498,6.9227626 -4.93030413,28.368818 7.96716448,30.9781471 C6.08349184,20.9782474 12.025278,11.5598842 17.6762959,11.5598842 C23.762202,11.5598842 21.1554013,23.2968082 18.6876638,35.906037 C15.7900949,50.5405299 12.4576378,67.2053438 24.0504418,67.2053438 C40.1362476,67.2053438 52.1639399,37.4989414 54.3383808,21.6937902 C57.099415,1.70410445 44.9250744,-3.6561452 38.6899916,2.28564097 Z" id="Path"></path>
            </g>
        </g>
    </g>
</svg>